<?xml version="1.0" encoding="UTF-8"?><svg id="Layer_2" xmlns="http://www.w3.org/2000/svg" viewBox="0 0 1355.49 137.11"><defs><style>.cls-1{fill:#fff;}</style></defs><g id="Layer_1-2"><g><g><path class="cls-1" d="M0,110.82v-27.17c4.3,0,7.37-.57,9.23-1.72,1.85-1.15,2.78-3.31,2.78-6.48V38.38c0-3.22-.93-5.41-2.78-6.56-1.86-1.15-4.93-1.72-9.23-1.72V2.93H101.37V44.38h-25.63c0-3.03-.15-5.46-.44-7.29s-.84-3.27-1.65-4.32c-.81-1.05-1.88-1.76-3.22-2.12-1.34-.37-3.02-.55-5.02-.55h-10.18v21.17h23.36v12.89h-23.36v11.28c0,2.59,.65,4.6,1.94,6.04,1.29,1.44,3.65,2.16,7.07,2.16h7.47v27.17H0Z"/><path class="cls-1" d="M178.78,83.64c2,0,3.67-.17,5.02-.51,1.34-.34,2.42-.99,3.22-1.94,.81-.95,1.35-2.26,1.65-3.92,.29-1.66,.44-3.78,.44-6.37h25.63v39.92H110.38v-27.17c4.3,0,7.37-.57,9.23-1.72,1.85-1.15,2.78-3.31,2.78-6.48V38.38c0-3.22-.93-5.41-2.78-6.56-1.86-1.15-4.93-1.72-9.23-1.72V2.93h104.37V42.85h-25.63c0-2.59-.15-4.71-.44-6.37-.29-1.66-.84-2.95-1.65-3.88-.81-.93-1.88-1.57-3.22-1.94-1.34-.37-3.02-.55-5.02-.55h-13.18v19.48h23.36v12.96h-23.36v21.09h13.18Z"/><path class="cls-1" d="M320.65,42.11h-24.17c-.39-2.49-1.26-4.81-2.6-6.96-1.34-2.15-2.99-4-4.94-5.57-1.95-1.56-4.13-2.77-6.52-3.63-2.39-.85-4.86-1.28-7.4-1.28-3.08,0-5.57,.59-7.47,1.76s-2.86,2.81-2.86,4.91,.85,3.63,2.56,4.87c1.71,1.25,3.96,2.32,6.74,3.22,2.78,.9,5.96,1.77,9.52,2.6,3.56,.83,7.19,1.86,10.88,3.08,3.69,1.22,7.31,2.7,10.88,4.43,3.56,1.73,6.74,3.96,9.52,6.67,2.78,2.71,5.03,6.02,6.74,9.92,1.71,3.91,2.56,8.59,2.56,14.06,0,5.81-1.25,10.77-3.74,14.87s-5.84,7.47-10.03,10.11c-4.2,2.64-9.03,4.57-14.5,5.79-5.47,1.22-11.13,1.83-16.99,1.83s-11.17-.66-16.37-1.98-10.51-3.47-15.93-6.45v6.45h-24.17v-39.92h24.17c1.42,5.71,4.25,10.22,8.5,13.51,4.25,3.3,9.03,4.94,14.36,4.94,3.56,0,6.23-.67,7.98-2.01,1.76-1.34,2.64-2.87,2.64-4.58,0-2.68-1.45-4.76-4.36-6.23-2.91-1.46-6.51-2.77-10.8-3.92-4.3-1.15-9-2.44-14.1-3.88-5.1-1.44-9.8-3.52-14.1-6.22-4.3-2.71-7.9-6.29-10.8-10.73-2.91-4.44-4.36-10.25-4.36-17.43,0-5.32,1.15-10.03,3.44-14.14,2.29-4.1,5.37-7.56,9.23-10.36,3.86-2.81,8.31-4.93,13.37-6.37,5.05-1.44,10.39-2.16,16-2.16,7.76,0,14.43,.9,20,2.71,5.57,1.81,9.89,3.71,12.96,5.71V2.93h24.17V42.11Z"/><path class="cls-1" d="M447.51,2.93V45.85h-24.1c0-3.27-.09-6.12-.26-8.53s-.55-4.37-1.13-5.86c-.59-1.49-1.48-2.59-2.67-3.3-1.2-.71-2.79-1.06-4.8-1.06h-4.54v48.34c0,3.17,.93,5.33,2.78,6.48,1.86,1.15,4.93,1.72,9.23,1.72v27.17h-67.16v-27.17c4.3,0,7.36-.57,9.19-1.72,1.83-1.15,2.75-3.31,2.75-6.48V27.1h-4.47c-2,0-3.6,.35-4.8,1.06-1.2,.71-2.1,1.81-2.71,3.3-.61,1.49-.99,3.44-1.14,5.86s-.22,5.26-.22,8.53h-24.17V2.93h118.21Z"/><path class="cls-1" d="M452.05,110.82v-27.17c4.3,0,7.37-.57,9.23-1.72,1.86-1.15,2.78-3.31,2.78-6.48V38.38c0-3.22-.93-5.41-2.78-6.56-1.86-1.15-4.93-1.72-9.23-1.72V2.93h67.16V30.1c-4.3,0-7.36,.57-9.19,1.72-1.83,1.15-2.75,3.33-2.75,6.56v37.06c0,3.17,.92,5.33,2.75,6.48,1.83,1.15,4.89,1.72,9.19,1.72v27.17h-67.16Z"/><path class="cls-1" d="M534.23,38.38c-.59-1.51-1.13-2.77-1.65-3.77-.51-1-1.2-1.85-2.05-2.56-.85-.71-1.93-1.21-3.22-1.5s-2.99-.44-5.09-.44V2.93h63.57V30.1c-7.28,0-10.06,2.47-8.35,7.4l11.35,35.52h.66l11.65-35.52c1.71-4.93-1.07-7.4-8.35-7.4V2.93h42.55V30.1c-2.1,0-3.8,.15-5.09,.44-1.29,.29-2.37,.79-3.22,1.5-.86,.71-1.53,1.56-2.01,2.56-.49,1-1.05,2.26-1.68,3.77l-28.34,72.44h-32.52l-28.2-72.44Z"/><path class="cls-1" d="M692.29,73.17h-23.14l-1.03,3.15c-.78,2.1-.73,3.84,.15,5.24,.88,1.39,2.73,2.09,5.57,2.09h4.17v27.17h-45.63v-27.17h3c3.52,0,5.87-.7,7.07-2.09,1.2-1.39,2.36-3.43,3.48-6.12l15.01-37.06c1.07-2.83,1.26-4.92,.55-6.26-.71-1.34-2.84-2.01-6.41-2.01h-1.54V2.93h75.29V30.1h-1.46c-3.61,0-5.77,.71-6.48,2.12-.71,1.42-.5,3.47,.62,6.15l15.01,37.06c.59,1.37,1.11,2.55,1.57,3.55,.46,1,1.04,1.86,1.72,2.56,.68,.71,1.6,1.23,2.75,1.57,1.15,.34,2.62,.51,4.43,.51h3v27.17h-66.58v-27.17h4.03c2.78,0,4.65-.7,5.6-2.09,.95-1.39,1.04-3.14,.26-5.24l-1.03-3.15Zm-19.41-11.43h15.6l-7.32-22.49h-.59l-7.69,22.49Z"/><path class="cls-1" d="M821.7,30.1c-4.3,0-7.36,.57-9.19,1.72-1.83,1.15-2.75,3.33-2.75,6.56v45.26h14.65c2,0,3.69-.19,5.05-.59,1.37-.39,2.44-1.21,3.22-2.45,.78-1.24,1.33-2.99,1.65-5.24,.32-2.25,.48-5.22,.48-8.94h25.63v44.38h-105.91v-27.17c4.3,0,7.37-.57,9.23-1.72,1.86-1.15,2.78-3.31,2.78-6.48V38.38c0-3.22-.93-5.41-2.78-6.56-1.86-1.15-4.93-1.72-9.23-1.72V2.93h67.16V30.1Z"/><path class="cls-1" d="M1012.94,75.59c.1,2,.46,3.96,1.1,5.86,.63,1.9,1.64,3.58,3,5.02,1.37,1.44,3.17,2.59,5.42,3.44,2.25,.85,5.05,1.28,8.42,1.28,3.91,0,7.14-.52,9.71-1.57,2.56-1.05,4.59-2.45,6.08-4.21s2.54-3.76,3.15-6.01c.61-2.25,.92-4.57,.92-6.96V37.5c0-2.64-.85-4.53-2.56-5.68-1.71-1.15-5.15-1.72-10.33-1.72V2.93h68.04V30.1c-4.3,0-7.36,.57-9.19,1.72-1.83,1.15-2.75,3.33-2.75,6.56v33.91c0,4.2-.66,8.74-1.98,13.62-1.32,4.88-3.72,9.38-7.21,13.48s-8.29,7.53-14.39,10.29c-6.1,2.76-13.94,4.14-23.51,4.14-9.03,0-16.42-1.25-22.16-3.74s-10.21-5.57-13.4-9.23c-3.2-3.66-5.41-7.52-6.63-11.57-1.22-4.05-1.83-7.57-1.83-10.55,0-4.3,.63-8.1,1.9-11.43,1.27-3.32,2.9-6.08,4.91-8.28,2-2.2,4.32-3.84,6.96-4.94,2.64-1.1,5.39-1.65,8.28-1.65,3.42,0,6.32,.5,8.72,1.5,2.39,1,4.37,2.33,5.93,3.99,1.56,1.66,2.7,3.54,3.41,5.64,.71,2.1,1.06,4.25,1.06,6.45,0,2.39-.4,4.59-1.21,6.59-.81,2-1.88,3.72-3.22,5.16-1.34,1.44-2.97,2.59-4.87,3.44s-3.91,1.28-6.01,1.28c-2.54,0-4.68-.32-6.41-.95-1.73-.63-3.2-1.48-4.39-2.53-1.2-1.05-2.2-2.23-3-3.55-.8-1.32-1.45-2.61-1.94-3.88Z"/><path class="cls-1" d="M1112.62,56.98c0-9.42,1.55-17.69,4.65-24.79,3.1-7.1,7.48-13.05,13.15-17.83,5.66-4.78,12.39-8.37,20.18-10.77,7.79-2.39,16.39-3.59,25.82-3.59s17.97,1.2,25.78,3.59c7.81,2.39,14.54,5.98,20.18,10.77,5.64,4.79,10.01,10.73,13.11,17.83,3.1,7.1,4.65,15.37,4.65,24.79s-1.55,17.61-4.65,24.72c-3.1,7.1-7.47,13.06-13.11,17.87-5.64,4.81-12.37,8.41-20.18,10.8-7.81,2.39-16.41,3.59-25.78,3.59s-18.03-1.2-25.82-3.59-14.51-5.99-20.18-10.8c-5.67-4.81-10.05-10.77-13.15-17.87-3.1-7.11-4.65-15.34-4.65-24.72Zm49.22,0c0,5.91,.22,10.85,.66,14.83,.44,3.98,1.21,7.2,2.31,9.67,1.1,2.47,2.58,4.25,4.43,5.35,1.86,1.1,4.25,1.65,7.18,1.65s5.13-.55,7.03-1.65c1.9-1.1,3.41-2.88,4.5-5.35,1.1-2.46,1.87-5.69,2.31-9.67,.44-3.98,.66-8.92,.66-14.83s-.22-10.74-.66-14.79c-.44-4.05-1.21-7.3-2.31-9.74-1.1-2.44-2.6-4.21-4.5-5.31s-4.25-1.65-7.03-1.65c-2.93,0-5.32,.55-7.18,1.65-1.86,1.1-3.33,2.87-4.43,5.31-1.1,2.44-1.87,5.69-2.31,9.74-.44,4.05-.66,8.98-.66,14.79Z"/><path class="cls-1" d="M1256.69,38.38c-1.12-1.12-2.08-2.18-2.86-3.19-.78-1-1.62-1.87-2.53-2.6s-1.99-1.33-3.26-1.79c-1.27-.46-2.91-.7-4.91-.7V2.93h64.38V30.1c-4.3,0-7.14,.71-8.53,2.12-1.39,1.42-1.36,3.17,.11,5.27l10.11,14.06h.59l10.03-14.06c1.71-1.9,1.89-3.61,.55-5.13-1.34-1.51-4.33-2.27-8.97-2.27V2.93h44.09V30.1c-1.46,0-2.75,.15-3.85,.44-1.1,.29-2.12,.77-3.08,1.43-.95,.66-1.93,1.51-2.93,2.56-1,1.05-2.21,2.33-3.62,3.85l-21.02,25.78v11.28c0,3.17,.93,5.33,2.78,6.48,1.86,1.15,4.93,1.72,9.23,1.72v27.17h-67.16v-27.17c4.3,0,7.37-.57,9.23-1.72,1.86-1.15,2.78-3.31,2.78-6.48v-11.28l-21.17-25.78Z"/></g><g><path class="cls-1" d="M940.66,48.29c-.17,.34-.17,.46,0,.38,.16-.08,.33-.12,.5-.12,0,.17-.09,.25-.25,.25l-.25,.25c0,.17-.17,.25-.5,.25v-.5l-.25-.25v.25c0,.34-.17,.5-.5,.5v.25c0,.17-.09,.25-.25,.25,0,.34-.17,.42-.5,.25-.5,0-.75,.09-.75,.25l-.25,.25c-.34,.17-.67,.34-1,.5-.34,.17-.67,.34-1,.5-.5,0-.59,.25-.25,.75h.5c.16,0,.25-.08,.25-.25s.08-.16,.25,0l.5-.5c0-.33,.08-.33,.25,0,.5,0,.91-.16,1.25-.5,0-.16-.09-.25-.25-.25s-.21-.04-.12-.12,.21-.12,.38-.12c0-.16,.08-.16,.25,0,0,.17,.08,.25,.25,.25h.5c0,.17-.09,.25-.25,.25,0,.34-.42,.67-1.25,1-.34,0-.5,.09-.5,.25s-.09,.34-.25,.5c-.67,.17-.92,.59-.75,1.25-.17-.16-.25-.16-.25,0,0,.67-.25,.75-.75,.25h-.25l-1.25,.5v.25c0,.17,.08,.17,.25,0l.25-.25h.5c0,.34-.09,.5-.25,.5h-.25c-.67,.34-.92,.67-.75,1,.16,.5,0,.75-.5,.75-.34,0-.5,.09-.5,.25,.16,.17,.33,.25,.5,.25h.75c0,.17-.25,.25-.75,.25-.34,0-.5,.17-.5,.5l-.5,.5c-.17,0-.25,.09-.25,.25s.08,.25,.25,.25h.5c-.17,.17-.25,.29-.25,.38s-.09,.21-.25,.38h-.5c-.5,0-.75,.17-.75,.5,0,.17-.09,.25-.25,.25-.34,0-.75,.25-1.25,.75-.34,0-.75,.09-1.25,.25-.5,.17-1,.25-1.5,.25-.17,.17-.29,.25-.38,.25s-.21,.09-.38,.25-.42,.25-.75,.25c-.17-.16-.42-.25-.75-.25s-.59,.04-.75,.12c-.17,.09-.42,.12-.75,.12-.17,.17-.29,.34-.38,.5-.09,.17-.21,.34-.38,.5-.34,.34-.5,.59-.5,.75s-.17,.42-.5,.75c.16,0,0,.25-.5,.75,0,.34-.12,.67-.38,1-.25,.34-.46,.67-.62,1-.34,.34-.62,.71-.88,1.12-.25,.42-.46,.79-.62,1.12-.17,.17-.42,.59-.75,1.25-.34,.34-.62,.71-.88,1.12-.25,.42-.54,.71-.88,.88-.17,.17-.25,.42-.25,.75-.17,.34-.34,.59-.5,.75s-.34,.42-.5,.75c-.34,.34-.5,.67-.5,1-.34,.67-.75,1.25-1.25,1.75-.67,1-1.09,1.67-1.25,2l-.5,.5c-.17,.84-.75,1.59-1.75,2.25-.34,.34-.54,.62-.62,.88-.09,.25-.21,.46-.38,.62-.34,.34-.62,.71-.88,1.12-.25,.42-.54,.79-.88,1.12,0,.17-.25,.5-.75,1-.17,0-.25,.09-.25,.25-.34,.34-.5,.62-.5,.88s-.17,.54-.5,.88c-.17,.34-.38,.54-.62,.62-.25,.09-.38,.29-.38,.62-.34,.5-.92,.91-1.75,1.25-.34,.33-.71,.54-1.12,.62-.42,.08-.79,.29-1.12,.62-.34,.16-.75,.33-1.25,.5-.5,.16-1,.25-1.5,.25-.34-.34-.71-.46-1.12-.38-.42,.08-.79,.12-1.12,.12-.17,0-.29-.04-.38-.12s-.21-.12-.38-.12c-1-.34-1.75-.5-2.25-.5-.67-.34-1-.75-1-1.25-.34-.34-.67-.42-1-.25-.17,0-.25-.09-.25-.25l-.25-.25c-.34-.33-.5-.71-.5-1.12s-.17-.79-.5-1.12c-.67-.66-1.17-1-1.5-1-.16,0-.25-.08-.25-.25-.16-.33-.33-.58-.5-.75s-.33-.41-.5-.75c-.16-.33-.33-.66-.5-1-.16-.33-.33-.75-.5-1.25-.33-1-.5-1.75-.5-2.25-.16-.16-.21-.29-.12-.38,.09-.08-.04-.21-.38-.38,.17-.33,.17-.62,0-.88-.16-.25-.16-.54,0-.88v-.25c-.33-.33-.46-.58-.38-.75,.09-.16,.12-.41,.12-.75-.16-.33-.21-.54-.12-.62,.09-.08,.12-.29,.12-.62-.16-.33-.25-.83-.25-1.5,0-.33-.04-.66-.12-1-.08-.33-.04-.66,.12-1,.17-.33,.21-.62,.12-.88-.08-.25-.04-.54,.12-.88,0-.33-.04-.66-.12-1-.08-.33-.04-.66,.12-1,.17-.5,.21-1,.12-1.5-.08-.5-.04-1.08,.12-1.75,.34-.66,.5-1.25,.5-1.75-.5,0-.5-.25,0-.75v-.5c0-.33,.04-.66,.12-1,.09-.33,.12-.58,.12-.75,.34-1,.5-1.75,.5-2.25,.17-.33,.42-1,.75-2,0-.16,.04-.25,.12-.25s.12-.16,.12-.5c.17-.33,.25-.62,.25-.88s.09-.54,.25-.88c.34-.33,.54-.66,.62-1,.08-.33,.21-.66,.38-1,.33-.33,.5-.66,.5-1s.08-.66,.25-1l.75-1.5c.33-.33,.54-.66,.62-1,.08-.33,.29-.66,.62-1v-.5c0-.33,.04-.58,.12-.75,.08-.16,.12-.41,.12-.75,0-.16,.12-.29,.38-.38,.25-.08,.38-.29,.38-.62l.25-.25c.33-.5,.75-.66,1.25-.5,.33,0,.62,.04,.88,.12,.25,.09,.46,.12,.62,.12,.66,.17,1.16,.17,1.5,0,.33,0,.58,.09,.75,.25,.33,.34,1,.67,2,1,.16,0,.33,.04,.5,.12,.16,.09,.33,.12,.5,.12,.5,0,.91,.17,1.25,.5,0,.34,.25,.5,.75,.5v.25c.66-.16,1,.09,1,.75l.5,.25h.25v-.25c-.17-.33-.25-.58-.25-.75s-.09-.33-.25-.5c-.34-.33-.5-.71-.5-1.12s-.09-.79-.25-1.12c-.34-.16-.34-.41,0-.75,.16,0,.21-.04,.12-.12-.09-.08-.21-.12-.38-.12-.17-.33-.17-.58,0-.75v-2.25c0-.5,.08-.91,.25-1.25,.16,0,.25-.16,.25-.5-.17-.33-.09-.91,.25-1.75,0-.5,.16-.83,.5-1v-1.25c.16,0,.25-.16,.25-.5,.16,0,.41-.41,.75-1.25,0-.33,.08-.54,.25-.62,.16-.08,.33-.29,.5-.62,0-.16,.08-.33,.25-.5s.25-.33,.25-.5c.33-.33,.25-.5-.25-.5-.17,0-.25-.08-.25-.25v-.25c.66-.16,1.08-.5,1.25-1,0-.33,.33-.66,1-1,.16-.5,.58-.75,1.25-.75,0,.34,.16,.42,.5,.25,.33-.16,.54-.33,.62-.5,.08-.16,.21-.33,.38-.5l.25-.75c0-.33,.08-.41,.25-.25,.5,.34,.75,.59,.75,.75s.08,.25,.25,.25c.33,0,.33-.16,0-.5,0-.16-.17-.41-.5-.75-.17,0-.29-.04-.38-.12-.09-.08,.04-.12,.38-.12,.33-.33,.83-.5,1.5-.5,.33,0,.58,.04,.75,.12,.16,.09,.41,.04,.75-.12h.25c0,.34,.25,.5,.75,.5,.83,0,1.41,.17,1.75,.5h.25c.66-.16,1.16-.08,1.5,.25,.33,.17,.54,.25,.62,.25s.29,.09,.62,.25h.25c.16,0,.25,.04,.25,.12s.08,.12,.25,.12h.25c.33,0,.58,.04,.75,.12,.16,.09,.41,.12,.75,.12,.33,.34,.58,.5,.75,.5s.41,.09,.75,.25c.83,0,1.58,.34,2.25,1,.16,.17,.41,.25,.75,.25,.83,.5,1.33,.84,1.5,1,.66,.5,1.25,1.09,1.75,1.75,0,.17,.08,.25,.25,.25,.16,.17,.25,.34,.25,.5s.16,.34,.5,.5c.33,1,.58,1.84,.75,2.5,0,.17,.04,.34,.12,.5,.08,.17,.12,.42,.12,.75-.17,.34-.21,.75-.12,1.25,.08,.5,.04,1-.12,1.5v2.25c0,.34-.17,.84-.5,1.5v1c-.17,.5-.25,1.17-.25,2l-.25,.25c-.17,.17-.25,.59-.25,1.25,.16,.34,.08,.67-.25,1,0,.34-.09,.71-.25,1.12-.17,.42-.25,.79-.25,1.12s-.04,.67-.12,1c-.09,.34-.04,.67,.12,1l-.25,.25c-.34,.34-.5,.71-.5,1.12s-.09,.79-.25,1.12v.25c.33-.16,.54-.16,.62,0,.08,.17,.21,.09,.38-.25,.5,0,.91-.08,1.25-.25l.25-.25h.25c.16,.17,.5,0,1-.5,.33,0,.58,.09,.75,.25h.5v-.25l.25-.5h.25c0,.17,.08,.25,.25,.25l.25-.25c0-.16,.04-.25,.12-.25s.12-.08,.12-.25c.16,.17,.33,.25,.5,.25,0-.16-.17-.25-.5-.25,0-.33,.08-.5,.25-.5s.33-.08,.5-.25l1.5-.75c0-.16,.25-.25,.75-.25,.33-.16,.58-.33,.75-.5s.41-.33,.75-.5c.16,0,.29-.08,.38-.25,.08-.16,.21-.25,.38-.25,0-.16,.08-.25,.25-.25s.33-.16,.5-.5h.25l.25,.25Zm-41,27.25c.16-.33,.29-.54,.38-.62s.21-.29,.38-.62l1.5-2.25c.16-.16,.29-.25,.38-.25s.21-.16,.38-.5c.16-.5,.58-1.25,1.25-2.25l.5-.5c.33-.33,.54-.58,.62-.75,.08-.16,.21-.33,.38-.5,.66-1,1-1.75,1-2.25,0-.16,.08-.25,.25-.25,.66-.66,1.08-1.25,1.25-1.75,.16-.16,.29-.33,.38-.5,.08-.16,.21-.33,.38-.5,.5-.16,.75-.58,.75-1.25,.66-1,1.16-1.66,1.5-2,0-.33-.09-.58-.25-.75l-.5-.5c0-.16-.09-.25-.25-.25-.34-.16-.5-.33-.5-.5s-.17-.25-.5-.25c-.34-.16-.5-.5-.5-1-.84-.5-1.34-1.08-1.5-1.75-.17,0-.25-.08-.25-.25s-.09-.25-.25-.25c-.17-.33-.34-.58-.5-.75-.17-.16-.34-.41-.5-.75l-.5-.5c-.17-.33-.5-.75-1-1.25,0-.33-.17-.5-.5-.5v.5h-.25c-.17,.17-.25,.5-.25,1v.5l-.5,.5c-.17,.5-.38,.88-.62,1.12l-.88,.88c-.34,.34-.59,.54-.75,.62-.17,.09-.34,.29-.5,.62v.25c-.5,.17-1,.59-1.5,1.25-.17,.17-.17,.25,0,.25,.5,0,.75,.17,.75,.5-.17,.17-.29,.34-.38,.5-.09,.17-.29,.34-.62,.5v-.5c-.34,0-.5,.09-.5,.25s-.04,.25-.12,.25-.12,.17-.12,.5c-.34,.17-.5,.38-.5,.62s-.17,.54-.5,.88l-.25,.25c0,.34-.09,.5-.25,.5-.5,.34-.59,.67-.25,1,.33,.67,.25,1.25-.25,1.75-.67,.5-1,1-1,1.5v.25c-.5,.5-.67,1-.5,1.5v.5c-.5,.34-.75,1-.75,2,0,.34-.09,.5-.25,.5-.34,.17-.34,.34,0,.5v1c-.17,0-.21,.09-.12,.25,.08,.17-.04,.17-.38,0-.17,0-.25,.17-.25,.5,.33,.5,.41,.84,.25,1-.17,.34-.38,.54-.62,.62-.25,.09-.21,.29,.12,.62-.17,0-.25,.17-.25,.5,0,.17,.16,.42,.5,.75,.16,.17,.16,.25,0,.25,.16,.5,0,.84-.5,1-.17,.17-.25,.34-.25,.5v.25c.16,0,.25,.17,.25,.5-.17,.17-.17,.25,0,.25h.5c.33,0,.33,.17,0,.5v.25c.16,.5,0,.75-.5,.75h-.5c0,.34,.08,.5,.25,.5,0,.17,.16,.25,.5,.25h.5c0,.17-.09,.34-.25,.5,0,.17-.17,.25-.5,.25v.5c.33,0,.5,.04,.5,.12s-.09,.12-.25,.12c-.34,.34-.34,.5,0,.5,.16,0,.33,.09,.5,.25v.5c.33,0,.58-.08,.75-.25v-.25c.33-.16,.54-.33,.62-.5,.08-.16,.29-.33,.62-.5,.16,0,.41-.16,.75-.5,.16-.33,.38-.62,.62-.88l.88-.88c.16-.33,.33-.54,.5-.62,.16-.08,.33-.29,.5-.62,0-.33,.25-.75,.75-1.25,.33-.33,.58-.66,.75-1,.16-.33,.41-.66,.75-1Zm-8.25,5c0,.17-.09,.25-.25,.25v-.25h.25Zm.25-7h0Zm.25,2.75h-.5c0,.34,.16,.34,.5,0Zm2.25-6c.16,0,.25,.09,.25,.25v.25c-.34-.16-.54-.16-.62,0-.09,.17-.21,.34-.38,.5v-.5c0-.16,.08-.25,.25-.25s.33-.08,.5-.25Zm-.25-.5c0,.17-.09,.17-.25,0l.25-.25c.16,0,.25,.09,.25,.25h-.25Zm.75-.75c.16-.16,.25-.16,.25,0l-.25,.25-.25-.25h.25Zm1.25-5.5c.16,0,.25,.09,.25,.25h-.25v-.25Zm10.5,12.25c.16-.33,.33-.58,.5-.75s.33-.41,.5-.75c.33,0,.5-.25,.5-.75,.83-.33,1.25-.83,1.25-1.5,.16-.16,.25-.29,.25-.38s.16-.21,.5-.38c.16,0,.41-.25,.75-.75,.16-.16,.25-.33,.25-.5,0-.33,.08-.58,.25-.75s.25-.33,.25-.5l.75-.75,.75-.75c.16-.33,.33-.62,.5-.88,.16-.25,.33-.54,.5-.88,.16-.16,.21-.25,.12-.25s-.04-.08,.12-.25c.33-.16,.54-.41,.62-.75,.08-.33,.29-.66,.62-1,0-.16,.08-.25,.25-.25,.33-.16,.5-.5,.5-1,0-.33-.04-.46-.12-.38s-.12,.04-.12-.12h-.5c-.67,0-1.17-.08-1.5-.25-.17-.33-.38-.41-.62-.25-.25,.17-.38,.34-.38,.5-.17,.17-.25,.29-.25,.38s-.09,.21-.25,.38l-.75,.75c0,.17-.17,.42-.5,.75s-.54,.59-.62,.75c-.09,.17-.29,.42-.62,.75s-.5,.54-.5,.62-.17,.29-.5,.62c-.34,.67-.59,1-.75,1-.17,.17-.25,.34-.25,.5,.16,.17,.16,.34,0,.5-.67,.34-.92,.75-.75,1.25l-.25,.25c-.17,.17-.29,.34-.38,.5-.09,.17-.21,.34-.38,.5h-.25c0,.17-.25,.5-.75,1-.17,.34-.5,.75-1,1.25,0,.34-.17,.67-.5,1l-1,1c0,.5-.34,1.09-1,1.75v.5c0,.34-.09,.59-.25,.75-.34,.34-.34,.59,0,.75,.16,.17,.5,.09,1-.25,.5-.5,.91-.83,1.25-1h.25c.33-.33,.58-.66,.75-1,.16-.33,.41-.66,.75-1,.16,0,.25-.08,.25-.25h.25v.25h.5Zm-3.5-27.75c-.34,.34-.34,.5,0,.5,.16,.17,.25,.42,.25,.75h.25v-.5l-.25-.5-.25-.25Zm.75,29.5c.16,0,.25,.09,.25,.25l-.25-.25Zm1.25,.25l.25-.5h-.25l-.25,.5h.25Zm0-36.75l.25-.25h-.25v.25Zm.5,35.75c-.17,0-.17,.09,0,.25v-.25Zm0-44c0,.17,.08,.25,.25,.25h.25c0-.16,.08-.25,.25-.25-.17-.33-.09-.5,.25-.5,.5,0,.75-.25,.75-.75,0-.16,.16-.33,.5-.5h.25c.33-.33,.5-.58,.5-.75,0-.66-.25-.75-.75-.25h-.25c-.17,0-.25,.09-.25,.25s-.04,.25-.12,.25-.12,.09-.12,.25c-.17,0-.29,.09-.38,.25-.09,.17-.21,.25-.38,.25l-.75,1.5Zm1,13.25l-.25,.25h-.5v.25h.5l.25-.5Zm.5-9v0Zm.25,4.25v.5l.5-.5h-.5Zm.5-.25c.16-.16,.21-.33,.12-.5-.09-.16-.04-.25,.12-.25-.34,0-.5,.17-.5,.5l.25,.25Zm1.5,34.75c-.17,0-.25,.09-.25,.25l.25,.25h-.25c-.17,0-.25-.04-.25-.12s-.09-.12-.25-.12c0-.16-.09-.25-.25-.25s-.25,.09-.25,.25c-.17,.17-.25,.42-.25,.75,0,.17,.08,.25,.25,.25,.16,.17,.33,.17,.5,0s.25-.29,.25-.38,.08-.21,.25-.38h.25v-.5Zm-1.25,1.75h-.25v.25h.25v-.25Zm.75-48.25c-.34,0-.59,.09-.75,.25h.75c.16,0,.25-.04,.25-.12s.08-.12,.25-.12h.25c.16,0,.29-.04,.38-.12s.04-.12-.12-.12c0-.16-.09-.16-.25,0s-.42,.25-.75,.25Zm-.75,10.25c.33,0,.5-.16,.5-.5h-.25c-.17,0-.25,.17-.25,.5Zm0,37.25l.25-.25-.25,.25Zm.5-.25h-.25l.25-.25v.25Zm2-35.5c-.17,.17-.21,.34-.12,.5,.08,.17,.04,.34-.12,.5-.17,0-.25,.25-.25,.75v.5c-.17,0-.25,.09-.25,.25,0,.34-.17,.5-.5,.5h-.25l.25,.25v.88c0,.42-.09,.71-.25,.88-.34,.34-.34,.5,0,.5v.75c0,.34,.08,.5,.25,.5l.5,.5c.5,0,.75,.25,.75,.75,.16,.84,.58,1.92,1.25,3.25,.16,.34,.33,.62,.5,.88,.16,.25,.33,.54,.5,.88l.5,.5c0-.33,.08-.5,.25-.5h.25c.16-.33,.33-.71,.5-1.12,.16-.41,.33-.79,.5-1.12,0-.16,.16-.41,.5-.75,0-.66,.16-1.08,.5-1.25,.5-.5,.66-.83,.5-1,.33-.16,.5-.41,.5-.75,.16-.16,.25-.5,.25-1l.75-1.5c.5-.5,.66-.83,.5-1v-.75c.33-.33,.33-.66,0-1v-.5c.16-.33,.29-.54,.38-.62s.21-.29,.38-.62v-1c0-.33,.04-.62,.12-.88,.08-.25,.12-.54,.12-.88v-2.5c.33-.33,.46-.54,.38-.62-.09-.08-.12-.21-.12-.38,0-.33-.04-.58-.12-.75-.09-.16-.12-.33-.12-.5,.16-.33,.08-.5-.25-.5s-.5,.09-.5,.25c-.17,.17-.34,.25-.5,.25-.17-.16-.25-.16-.25,0-.34,.67-.67,.92-1,.75-.17,.17-.34,.25-.5,.25h-.25c-.17,.34-.42,.5-.75,.5-.5,.34-.75,.59-.75,.75v.25c-.34,0-.5,.09-.5,.25s-.09,.34-.25,.5c-.34,.34-.54,.59-.62,.75-.09,.17-.29,.42-.62,.75-.34,.67-.75,1.09-1.25,1.25-.17,0-.25,.09-.25,.25,.16,.34,.08,.67-.25,1-.17,0-.25,.09-.25,.25Zm-.5-3.25v-1.25c0-.33-.09-.5-.25-.5s-.25,.17-.25,.5-.09,.59-.25,.75c-.34,0-.5,.25-.5,.75h.75c.5,0,.66-.08,.5-.25Zm9,26.5c.5-.83,.58-1.41,.25-1.75-.17-.16-.42-.29-.75-.38-.34-.08-.59-.04-.75,.12-.34,.34-.62,.67-.88,1-.25,.34-.54,.67-.88,1-.34,.17-.67,.67-1,1.5-.34,0-.5,.09-.5,.25,0,.34-.09,.62-.25,.88-.17,.25-.34,.54-.5,.88-.34,.17-.5,.38-.5,.62s-.17,.46-.5,.62c-.17,.34-.42,.67-.75,1-.5,.5-.84,.92-1,1.25l-.25,.5c-.17,.17-.29,.34-.38,.5-.09,.17-.21,.34-.38,.5,0,.34-.09,.54-.25,.62-.17,.09-.25,.29-.25,.62-.5,.5-.67,.84-.5,1h0c.33,0,.5,.09,.5,.25,.16,0,.33-.08,.5-.25s.25-.33,.25-.5,.16-.33,.5-.5c.16,0,.25-.16,.25-.5s.08-.54,.25-.62c.16-.08,.25-.21,.25-.38,.33,0,.58,.09,.75,.25,0-.33,.08-.5,.25-.5s.33-.08,.5-.25c.16-.33,.33-.62,.5-.88,.16-.25,.33-.54,.5-.88,0-.33,.16-.5,.5-.5-.17-.33-.17-.54,0-.62,.16-.08,.25-.21,.25-.38h.5v.5h.25c0-.33,.16-.66,.5-1,.16,0,.25-.16,.25-.5v-.25h-.25c0,.34-.09,.42-.25,.25v-.25l.25-.25c.16-.5,.5-.75,1-.75,.66,0,.91-.25,.75-.75,0-.33,.16-.5,.5-.5l.25-.25c0-.16,.16-.41,.5-.75Zm-9-29.25h0Zm0,15c.33,0,.33-.16,0-.5v-.25c-.34,.34-.42,.5-.25,.5,0,.17,.08,.25,.25,.25Zm1-15c-.17,.17-.25,.34-.25,.5s.08,.17,.25,0c.33,0,.5-.08,.5-.25l-.5-.25Zm.25-9h.5c0,.17,.08,.25,.25,.25,0,.17,.08,.17,.25,0,0-.16-.17-.25-.5-.25h-.25c0-.16-.09-.25-.25-.25v.25Zm3.5,44.75c0-.33,.04-.54,.12-.62s.04-.29-.12-.62c0,.17-.09,.25-.25,.25,0,.34-.09,.59-.25,.75-.34,0-.34,.17,0,.5,.16,0,.33-.08,.5-.25Zm11.5-19.75c0-.16-.09-.25-.25-.25s-.34-.08-.5-.25c-.34-.16-.5,0-.5,.5s-.17,.59-.5,.25c-.17,0-.29,.04-.38,.12s-.21,.12-.38,.12c0,.17-.09,.34-.25,.5-.34,.34-.67,.25-1-.25h.25v-.25c-.17,0-.25,.09-.25,.25-.34,0-.5,.17-.5,.5,0,.17-.09,.25-.25,.25h-.5c-.17,0-.34-.08-.5-.25-.17-.16-.34-.08-.5,.25-.17,0-.42,.17-.75,.5l-.25,.25v-.75h-.5c-.17,.34-.29,.5-.38,.5s-.21,.09-.38,.25l-.5,1c-.34,.34-.5,.59-.5,.75s-.09,.42-.25,.75c0,.17,.08,.25,.25,.25,.5,0,.91,.09,1.25,.25h1c.5,0,.83-.16,1-.5v-.25c.16,.34,.29,.42,.38,.25,.08-.16,.29-.25,.62-.25,1,.34,1.58,.09,1.75-.75,0-.16,.08-.29,.25-.38,.16-.08,.25-.21,.25-.38v-.5c.16,0,.25,.17,.25,.5v.25c-.17,.17-.17,.34,0,.5-.17,0-.25,.09-.25,.25v.5h.25v-.75c.5-.16,.75-.66,.75-1.5,.16,0,.41-.41,.75-1.25,0-.5,.25-.83,.75-1h.25Zm-9.25,14.5h.25v.25h-.25v-.25Zm.75-10h.25c0,.17-.09,.25-.25,.25v-.25Zm1.25-12.75c-.34,0-.5,.09-.5,.25,.16,.17,.33,.25,.5,.25s.25-.16,.25-.5h-.25Zm-.25,20.25c.16,0,.25,.09,.25,.25l-.25,.25c-.17,0-.25-.08-.25-.25l.25-.25Zm.5-9.25c0-.33,.08-.5,.25-.5s.25,.09,.25,.25l-.25,.25h-.25Zm.25-21l.25,.25c.16,.17,.25,.34,.25,.5,.5-.16,.58-.41,.25-.75h-.5c0-.33-.09-.41-.25-.25v.25Zm.5,1.25c-.17,0-.25,.04-.25,.12s.08,.12,.25,.12v-.25Zm.75,2c-.17-.16-.29-.21-.38-.12s-.21,.04-.38-.12v.25c0,.17,.16,.25,.5,.25l.25-.25Zm.25,17c.16,0,.25,.09,.25,.25v.5c-.17,.17-.25,.42-.25,.75,0,.67-.34,.84-1,.5v-.25c0-.16,.16-.41,.5-.75,.16,0,.16-.08,0-.25-.17,0-.25-.04-.25-.12s.16-.12,.5-.12v-.25c0-.16,.08-.25,.25-.25Zm1.25,.25v.5c0,.17-.04,.25-.12,.25s-.12,.17-.12,.5v.25h-.5c-.17,0-.17-.08,0-.25l.5-1,.25-.25Zm0-11.25c0,.17,.08,.25,.25,.25s.16-.08,0-.25c.16-.16,.25-.33,.25-.5h-.25v.5h-.25Zm.25-1.25c0,.17,.08,.25,.25,.25v-.25h-.25Zm.5,10.75c0,.17,.08,.25,.25,.25v-.25h-.25Zm1.25,1c0,.34,.08,.59,.25,.75-.67,0-.84-.25-.5-.75h.25Zm.25-2.5c-.17,0-.25,.09-.25,.25,.16,0,.25-.08,.25-.25h0Zm2.75-2c.16,0,.25-.08,.25-.25v-.25c-.5-.5-.75-.41-.75,.25,0,.17-.09,.25-.25,.25-.84,0-1,.25-.5,.75v.5c-.17,0-.25,.09-.25,.25v.25c.16,0,.33-.08,.5-.25h-.25v-.25h.25c0-.16,.16-.41,.5-.75,.33,0,.5-.16,.5-.5Zm.75-3.25c0,.17,.08,.25,.25,.25,0-.16,.08-.25,.25-.25-.17,0-.25-.04-.25-.12s-.09-.12-.25-.12v.25Zm.75-4.5l.25,.25v-.25h-.25Zm2,17.25l.25-.25c0-.16-.09-.25-.25-.25s-.25,.09-.25,.25,.08,.25,.25,.25Zm2.5-2v-.25c-.17,0-.25,.04-.25,.12s-.09,.12-.25,.12c-.17,.34-.34,.54-.5,.62-.17,.09-.42,.29-.75,.62l-.25,.25h.5c.16-.16,.5-.25,1-.25,.5-.33,.66-.58,.5-.75v-.5Zm.25-2l-.25-.25v.25h.25Zm1.25,2.25h.25v.25h-.25l-.25,.25h-.25c0-.16,.08-.25,.25-.25l.25-.25Zm5-6.25l-.25,.25v-.25h.25Zm1.5-1c.33-.5,.66-.66,1-.5-.34,.34-.67,.5-1,.5Zm1.25-1.25h.5l-.25,.25c-.17,0-.25-.08-.25-.25Zm.5-.75c0-.16,.08-.25,.25-.25v.25h-.25Z"/><path class="cls-1" d="M980.65,56.79v.5c-.17,.34-.38,.5-.62,.5s-.46,.17-.62,.5l-.25,.25c-.17,0-.25,.09-.25,.25v.25c0-.16-.09-.25-.25-.25-.67,.67-1.17,.92-1.5,.75l-.25,.25c-.17,.67-.75,1-1.75,1-.5,.17-1,.38-1.5,.62s-1,.46-1.5,.62c-.5,.17-1.04,.34-1.62,.5-.59,.17-1.12,.34-1.62,.5-.84,.34-1.54,.62-2.12,.88-.59,.25-1.29,.38-2.12,.38-.5,0-1.09,.17-1.75,.5-.67,.17-1.25,.29-1.75,.38-.5,.09-1,.29-1.5,.62-.84,0-1.42,.09-1.75,.25h-2.75c-1,0-1.92,.09-2.75,.25-.67,0-1.25,.04-1.75,.12-.5,.09-1.09,.12-1.75,.12h-1c0,.5-.17,.75-.5,.75,.16,0,.16-.08,0-.25v.25c-.17,.5-.34,1-.5,1.5-.17,.5-.25,1-.25,1.5-.17,.34-.34,.67-.5,1-.17,.34-.34,.67-.5,1-.67,.67-.75,1.17-.25,1.5l-.25,.25c-.5-.5-.75-.41-.75,.25,0,.17-.09,.34-.25,.5-.67-.33-.75-.5-.25-.5,.16-.5,.08-.75-.25-.75-.17,0-.25-.08-.25-.25l.25-.25c.66-.16,.75-.5,.25-1-.17,0-.25-.12-.25-.38s-.09-.29-.25-.12c-.5,.34-.75,.75-.75,1.25,0,.34-.09,.59-.25,.75s-.25,.42-.25,.75c-.34,.67-.54,1.34-.62,2-.09,.67-.29,1.25-.62,1.75-.17,.34-.34,.42-.5,.25-.17,0-.42,.17-.75,.5,0,.17-.09,.29-.25,.38-.17,.09-.25,.21-.25,.38,0,.34-.09,.5-.25,.5s-.25-.08-.25-.25c-.5-.5-.84-.75-1-.75-.5,0-.59,.17-.25,.5,0,.17,.16,.42,.5,.75,.5,.67,.58,1.42,.25,2.25-.34,.17-.5,.59-.5,1.25-.17,.34-.29,.54-.38,.62s-.21,.29-.38,.62c-.17,.34-.25,.67-.25,1s-.17,.67-.5,1c-.34,.67-.67,1.5-1,2.5,0-.16-.25,0-.75,.5,0,.34-.09,.62-.25,.88-.17,.25-.25,.54-.25,.88,.16,.66,.12,1.21-.12,1.62-.25,.41-.46,.96-.62,1.62-.17,.33-.25,.58-.25,.75s-.09,.41-.25,.75c0,.16-.17,.41-.5,.75-.17,0-.42,.58-.75,1.75,0,.83-.09,1.33-.25,1.5-.17,.5-.17,.91,0,1.25,.33,.33,.38,.58,.12,.75-.25,.16-.38,.41-.38,.75-.84,1.33-1.25,2.66-1.25,4,0,.33-.08,.62-.25,.88-.16,.25-.25,.54-.25,.88,0,.16-.08,.33-.25,.5,0,.5,.09,.75,.25,.75s.34-.09,.5-.25c.33-.67,.58-1.25,.75-1.75,.16-.5,.33-1,.5-1.5,0-.17,.08-.25,.25-.25s.25,.08,.25,.25c-.17,.66-.42,1.5-.75,2.5v.75c0,.33,.08,.58,.25,.75,.33,0,.5-.09,.5-.25v-.25c.16-.34,.38-.59,.62-.75,.25-.17,.21-.42-.12-.75h.25c.33,.16,.5,.16,.5,0s-.09-.34-.25-.5c-.17-.67-.17-1.25,0-1.75,.16-.5,.25-1,.25-1.5,0-.17,.25-.25,.75-.25-.17,0-.25,.25-.25,.75,.16,0,.25-.25,.25-.75,0-.17-.09-.34-.25-.5v-.25h.25c0,.16,.08,.25,.25,.25,.16,.16,.25,.33,.25,.5s.16,.25,.5,.25v-.75c.33-.67,.58-1,.75-1h.25c.33-.84,.62-1.54,.88-2.12,.25-.59,.29-1.29,.12-2.12v-.25c.5-.34,.71-.71,.62-1.12-.09-.42,.04-.79,.38-1.12v-.5c-.17-.17-.17-.34,0-.5,.16,0,.25-.09,.25-.25-.34-.34-.46-.54-.38-.62,.08-.09,.21-.12,.38-.12,.33-.17,.5-.34,.5-.5s.08-.34,.25-.5c0-.5,.16-1.09,.5-1.75,0-.33,.08-.58,.25-.75,.5-.16,.75-.66,.75-1.5s.08-1.5,.25-2c.16-.33,.12-.54-.12-.62-.25-.08-.38-.04-.38,.12-.34,.17-.67,.17-1,0-.34-.16-.67-.08-1,.25v-1.25c.33-.16,.5-.41,.5-.75,0-.83,.08-1.33,.25-1.5l.25-.25c.33,0,.5-.08,.5-.25v-.25h-.25c-.17-.33-.17-.75,0-1.25,.33-.33,.5-.25,.5,.25,0,.34,.08,.5,.25,.5v-.25c0-.16,.08-.25,.25-.25v2.5l-.5,1c0,.67,.08,1,.25,1,.16,.17,.38,.17,.62,0,.25-.16,.29-.41,.12-.75,0-.16,.04-.33,.12-.5,.08-.16-.04-.33-.38-.5-.17-.16,0-.66,.5-1.5,0,.17,.16,.25,.5,.25h.25v-1c-.34-.33-.25-.5,.25-.5,.33,0,.41-.08,.25-.25-.34-.33-.42-.58-.25-.75s.33-.41,.5-.75c.5-.33,.5-.75,0-1.25-.17-.16-.17-.5,0-1,.16-.16,.25-.38,.25-.62s.16-.46,.5-.62c.5-.5,1-.5,1.5,0,0,.17-.09,.25-.25,.25-.17,.34-.34,.59-.5,.75s-.09,.42,.25,.75v.25c-.5,.17-.71,.42-.62,.75,.08,.34,.04,.67-.12,1,0,.84-.09,1.42-.25,1.75-.17,.67-.29,1.29-.38,1.88-.09,.59-.21,1.29-.38,2.12-.34,1-.92,1.59-1.75,1.75v.25c.16,.17,.21,.29,.12,.38s.04,.12,.38,.12,.41,.25,.25,.75c-.17,.67-.29,1.34-.38,2-.09,.66-.21,1.41-.38,2.25v1.75c-.17,.66-.29,1.33-.38,2-.09,.66-.29,1.33-.62,2-.34,1.16-.59,2.29-.75,3.38-.17,1.08-.42,2.04-.75,2.88-.34,.66-.42,1.29-.25,1.88,.16,.58,.08,1.12-.25,1.62l-.75,3c-.17,.66-.34,1.29-.5,1.88-.17,.58-.42,1.29-.75,2.12-.17,.83-.29,1.54-.38,2.12-.09,.58-.29,1.29-.62,2.12-.34,1-.5,1.91-.5,2.75-.34,1-.67,1.91-1,2.75-.34,.5-.54,1-.62,1.5-.09,.5-.29,1-.62,1.5,0,.33-.09,.71-.25,1.12-.17,.41-.34,.79-.5,1.12-.17,.66-.5,1.25-1,1.75s-.91,1.08-1.25,1.75c-.83,1.16-1.75,1.75-2.75,1.75-.33,0-.66,.08-1,.25-.5,.5-.91,.41-1.25-.25-.66-.34-1.08-.34-1.25,0,0,.33-.16,.33-.5,0-.33,0-.5-.25-.5-.75-.16-.67-.58-1-1.25-1l-.5-.5c-.33-.5-.58-1.04-.75-1.62-.16-.59-.41-1.12-.75-1.62v-.25l-.5-.25c-.5,0-.83-.17-1-.5-.33-.67-.58-1.09-.75-1.25-.33-.34-.5-.67-.5-1s-.08-.67-.25-1c0-1.34-.25-2.34-.75-3-.16-.17-.21-.42-.12-.75,.09-.34,.12-.67,.12-1,.17-.84,.29-1.54,.38-2.12,.09-.59,.12-1.21,.12-1.88,0-.17,.09-.25,.25-.25v.5c.34,.16,.42,.33,.25,.5s-.08,.25,.25,.25c.17,.16,.21,.12,.12-.12-.08-.25-.04-.38,.12-.38v-.25c.67-.5,1.04-.92,1.12-1.25,.09-.34,.12-.92,.12-1.75,.17-.67,.34-1.34,.5-2,.17-.67,.25-1.42,.25-2.25,.17-.67,.25-1.34,.25-2s.17-1.34,.5-2c.34-1,.62-1.96,.88-2.88,.25-.92,.54-1.88,.88-2.88,.34-.34,.5-.84,.5-1.5,.34-.84,.84-1.5,1.5-2,.34-.84,.67-1.25,1-1.25v-.5c-.16-.17-.25-.46-.25-.88s.09-.71,.25-.88c.34,0,.46,.04,.38,.12s-.04,.12,.12,.12v0c0-.67,.17-1.21,.5-1.62,.34-.42,.59-.88,.75-1.38,.5-1.16,.92-2.25,1.25-3.25,0-.33,.09-.66,.25-1,.17-.33,.34-.66,.5-1,.5-.33,.67-.83,.5-1.5h.25c.5-.83,.88-1.62,1.12-2.38s.54-1.54,.88-2.38c0-.66,.08-1.21,.25-1.62,.16-.41,.33-.88,.5-1.38,.16-.33,.25-.83,.25-1.5-.17-.33-.17-.66,0-1,.16-.33,.33-.66,.5-1,.33-.83,.58-1.54,.75-2.12,.16-.58,.41-1.21,.75-1.88,0-.66,.25-1.41,.75-2.25v-1.25c-.67,1-1.09,1.75-1.25,2.25l-.62,1.25c-.25,.5-.46,1-.62,1.5-.17,.34-.34,.67-.5,1-.17,.34-.34,.67-.5,1,0,.17-.17,.42-.5,.75-.16-.83,.08-1.58,.75-2.25,.33-.83,.66-1.62,1-2.38,.33-.75,.66-1.46,1-2.12,.33-.66,.83-1.5,1.5-2.5v0c0,.34,.08,.5,.25,.5l.25-.5,.25-.25c0-.33-.09-.5-.25-.5-.17,.17-.25,.09-.25-.25,.33-.33,.54-.71,.62-1.12,.08-.41,.29-.79,.62-1.12,.33-.66,.54-1.25,.62-1.75,.08-.5,.29-1.08,.62-1.75,1-1.33,1.58-2.41,1.75-3.25,.16-.33,.33-.66,.5-1,.16-.33,.25-.66,.25-1,0-.5,.16-.75,.5-.75l1.5-3v-.25c.5-.33,.83-.79,1-1.38,.16-.58,.41-1.12,.75-1.62,0-.33,.16-.5,.5-.5v0c0,.34-.17,.84-.5,1.5-.34,.34-.34,.59,0,.75h.5v-.5c.16-.16,.21-.41,.12-.75-.09-.33,.12-.41,.62-.25,.16-.16,.25-.33,.25-.5v-.75c0-.66,.25-1,.75-1,.66-.16,.83-.66,.5-1.5l-.25-.25c.33-.33,.5-.79,.5-1.38s.16-1.12,.5-1.62c.5-.83,.96-1.71,1.38-2.62,.41-.91,.96-1.79,1.62-2.62,1-2,2.16-4.16,3.5-6.5,.33-.66,.66-1.29,1-1.88,.33-.58,.83-1.21,1.5-1.88,.16-.33,.58-1,1.25-2,.33-.33,.5-.58,.5-.75,.5-.33,.88-.75,1.12-1.25s.54-.91,.88-1.25c.66-.33,1-.91,1-1.75-.17-.33,.33-.5,1.5-.5,.83,.34,1.46,.71,1.88,1.12,.41,.42,1.04,.71,1.88,.88,.5,0,1,.42,1.5,1.25,.33,.5,.71,.88,1.12,1.12,.41,.25,.79,.62,1.12,1.12,0,.17,.25,.25,.75,.25,.5,.17,.83,.5,1,1l.5,.5c.33,0,.5,.25,.5,.75-.34,.34-.34,.75,0,1.25,.16,.67-.09,1.34-.75,2s-1.29,1.21-1.88,1.62c-.59,.42-1.12,.96-1.62,1.62-.84,1-1.5,2-2,3s-1.09,2-1.75,3l-2.25,3.75c-.17,.67-.46,1.21-.88,1.62l-1.38,1.38h-.25c0,.67-.25,1-.75,1-.17,0-.34,.09-.5,.25-.34,.67-.75,1.21-1.25,1.62-.5,.42-.92,.88-1.25,1.38-.34,.34-.62,.71-.88,1.12-.25,.42-.29,.96-.12,1.62v.25c-.5,.5-.59,.75-.25,.75-.67,1.67-1,3.09-1,4.25-.17,.34-.25,.62-.25,.88s-.09,.54-.25,.88c.5,0,.75-.16,.75-.5,0-.16,.16-.25,.5-.25s.58,.09,.75,.25c.5,.67,.91,.59,1.25-.25,.16-.16,.5-.25,1-.25,.16,.34,.41,.34,.75,0,0-.33,.16-.5,.5-.5l.25,.25v.25c-.34,0-.5,.17-.5,.5,.16,.34,.41,.34,.75,0,.33-.16,.75-.25,1.25-.25s1-.08,1.5-.25c1-.33,1.91-.5,2.75-.5,.33-.16,.75-.25,1.25-.25s.91-.16,1.25-.5h.75v.5c.16,0,.25-.08,.25-.25s-.09-.25-.25-.25l.25-.25c.33,.17,.71,.29,1.12,.38,.41,.09,.79,.29,1.12,.62h.75c.16,0,.29-.04,.38-.12s.21-.12,.38-.12c.33-.33,.66-.46,1-.38,.33,.09,.66-.21,1-.88h.25c.5,.67,1.08,.67,1.75,0,.5-.16,1-.25,1.5-.25s.91-.08,1.25-.25c.33-.16,.54-.21,.62-.12,.08,.09,.21,.04,.38-.12s.33-.25,.5-.25c0,.17-.09,.34-.25,.5-.34,.34-.71,.62-1.12,.88-.42,.25-.79,.54-1.12,.88s-.62,.59-.88,.75c-.25,.17-.54,.42-.88,.75-.34-.66-.5-.66-.5,0-.67,.67-1.17,.92-1.5,.75,0-.16-.09-.16-.25,0,.16,.5,.12,.79-.12,.88-.25,.09-.54,.21-.88,.38-.17,.17-.38,.25-.62,.25s-.54,.09-.88,.25c-.5,0-.59,.25-.25,.75l-.25,.25c-.17,0-.25-.08-.25-.25-.17-.16-.5-.25-1-.25v.25c0,.5,.33,.75,1,.75,.83,0,1.5-.08,2-.25,.83-.33,1.58-.58,2.25-.75,.66-.16,1.33-.41,2-.75,.33-.33,.66-.5,1-.5s.66-.08,1-.25c.16-.16,.33-.29,.5-.38,.16-.08,.33-.21,.5-.38,.16-.33,.38-.5,.62-.5s.46-.08,.62-.25h.25Zm-65,59.25c0,.5-.16,.83-.5,1v-1c.17-.34,.21-.54,.12-.62-.08-.09,.04-.29,.38-.62,.17,.33,.21,.54,.12,.62s-.12,.29-.12,.62Zm.5-2.75l-.5,.5v-.5c.17-.5,.34-.96,.5-1.38,.17-.42,.25-.88,.25-1.38,0-.34,.09-.59,.25-.75v-.5c.17,0,.25,.16,.25,.5v.25c-.33,.5-.46,1.04-.38,1.62,.09,.58-.04,1.12-.38,1.62Zm0,3l.25-.25v.25c0,.33-.08,.5-.25,.5v-.5Zm1.75-11.25v-1.25c.17-.34,.21-.59,.12-.75-.08-.17,.04-.34,.38-.5,.34-.34,.42-.5,.25-.5v.5c0,.33-.08,.71-.25,1.12-.16,.41-.33,.79-.5,1.12v.25Zm1.25-4.25c0-.17-.04-.25-.12-.25s-.12-.09-.12-.25h.25c.17,0,.17,.08,0,.25v.25Zm1.25-4.25h-.25c0-.17,.09-.25,.25-.25v.25Zm.5-1.25l-.25,.25c-.16,0-.16-.09,0-.25l.25-.25v.25Zm.75-2.25c0,.16-.16,.41-.5,.75,0-.34,.17-.67,.5-1v.25Zm.75-2c0,.17-.08,.34-.25,.5v-1.25c.5-.66,.92-1.83,1.25-3.5,.34-.33,.67-1,1-2h.25l.25,.5c-.16,.17-.41,.59-.75,1.25-.33,.84-.58,1.62-.75,2.38-.16,.75-.5,1.46-1,2.12Zm3.25-8.25v-.25c.34-.5,.54-1,.62-1.5,.09-.5,.29-1,.62-1.5v-.25c.17,.17,.25,.34,.25,.5-.33,.67-.58,1.09-.75,1.25-.16,.34-.25,.62-.25,.88s-.16,.46-.5,.62v.25Zm.5,3.5c.17,.17,.25,.5,.25,1v.25c-.16-.16-.25-.5-.25-1v-.25Zm1-7.5v-.25l.25-.25c.17,.17,.25,.34,.25,.5h-.5Zm.75,26c0-.34,.12-.42,.38-.25,.25,.16,.38,.08,.38-.25,0-.5-.08-.67-.25-.5s-.33,.21-.5,.12c-.16-.09-.25,.04-.25,.38s.09,.5,.25,.5Zm1-30.5c.34-.33,.59-.5,.75-.5-.33,1-.66,1.92-1,2.75-.16,0-.25,.09-.25,.25s-.16,.25-.5,.25c-.16-.16-.08-.41,.25-.75,.17-.33,.29-.66,.38-1,.09-.33,.21-.66,.38-1Zm2.25,22.5c.16-.34-.17-.67-1-1-.34,0-.58,.25-.75,.75-.16,.33-.25,.75-.25,1.25s-.16,.91-.5,1.25v.25c.34,.16,.34,.41,0,.75,0,.5,.09,.91,.25,1.25l1-1c.16-.34,.25-.67,.25-1s.16-.67,.5-1c.16-.17,.25-.5,.25-1,0-.17,.08-.34,.25-.5Zm-2,20c-.33,0-.5,.25-.5,.75v.5c.34,0,.5-.09,.5-.25s.09-.34,.25-.5c0-.17-.08-.34-.25-.5Zm.25-1c.33,0,.5-.17,.5-.5,.33-.67,.5-1.09,.5-1.25,.16-.5,.21-.92,.12-1.25-.09-.34,.04-.67,.38-1,.5-.5,.5-.75,0-.75-.17-.17-.42-.09-.75,.25-.17,.33-.21,.58-.12,.75,.08,.16,.04,.41-.12,.75-.33,1-.5,1.83-.5,2.5v.5Zm6.25-31v-.75c-.34,0-.5,.25-.5,.75,.16,.34,.08,.59-.25,.75-.34,.17-.59,.42-.75,.75h-.25v-.5l.25-.25c.33-.16,.46-.33,.38-.5-.09-.16-.04-.33,.12-.5,0-.33-.09-.5-.25-.5-.17-.16-.34-.16-.5,0-.17,.34-.34,.67-.5,1-.17,.34-.34,.67-.5,1-.67,1.67-1.09,2.92-1.25,3.75,0,.34-.09,.59-.25,.75-.5,.84-.75,1.58-.75,2.25v.75c.16,0,.25-.17,.25-.5,.16-.17,.29-.34,.38-.5,.08-.17,.21-.34,.38-.5,.33-.33,.58-.54,.75-.62,.16-.08,.33-.29,.5-.62,.33-.5,.66-.96,1-1.38,.33-.41,.5-.96,.5-1.62l.25-.5c.16-.5,.33-.91,.5-1.25,.16-.33,.33-.75,.5-1.25Zm-4,10.5c0-.34-.09-.59-.25-.75-.5,0-.75,.25-.75,.75,0,.33,.08,.58,.25,.75,.33,0,.5-.09,.5-.25s.08-.34,.25-.5Zm.75-5.5c0-.33,.08-.46,.25-.38,.16,.09,.25-.04,.25-.38v.25c0,.34-.17,.5-.5,.5Zm1.5,12.5c-.34,.33-.42,.5-.25,.5v-.5c0-.34,.08-.67,.25-1v1Zm.5-1.75v.25c0,.16-.09,.25-.25,.25s-.25-.09-.25-.25v-.25c0-.34,.16-.5,.5-.5v.5Zm-.25,2.25c.16,0,.25,.08,.25,.25l-.25,.25c-.17,0-.25-.17-.25-.5h.25Zm.25-19.75c.16,.17,.16,.34,0,.5s-.09,.25,.25,.25,.5-.25,.5-.75c.16-.33,.25-.75,.25-1.25,.16,0,.25-.04,.25-.12s-.09-.12-.25-.12l-.25,.25c-.17,0-.42,.42-.75,1.25Zm1,15.25c0,.33-.25,.75-.75,1.25-.17,.16-.25,.08-.25-.25v-.75c.33-.67,.54-1.34,.62-2,.08-.67,.29-1.42,.62-2.25,.16,0,.25-.09,.25-.25s.08-.25,.25-.25c.5,.33,.75,.58,.75,.75,0,.5-.09,.91-.25,1.25-.5,.5-.92,1.33-1.25,2.5Zm.25-24c.33-.33,.5-.62,.5-.88s.08-.54,.25-.88l-.25-.25c0-.16-.04-.21-.12-.12s-.12,.21-.12,.38c0,.34-.09,.62-.25,.88-.17,.25-.25,.54-.25,.88,0,.17,.08,.17,.25,0Zm1.75,6.25h-.25c-.5,.5-.75,.84-.75,1v.25h.25c0-.16,.12-.29,.38-.38,.25-.08,.38-.29,.38-.62v-.25Zm-.25,10.75c0-.16,.04-.38,.12-.62,.08-.25-.12-.21-.62,.12,0,.17-.04,.25-.12,.25s-.12-.08-.12-.25c.33-1,.66-1.75,1-2.25v-.25c.16,.34,.38,.67,.62,1,.25,.34,.21,.75-.12,1.25,.33,.34,.16,.67-.5,1h-.25v-.25Zm2.25-10.5c.16-.33,.33-.58,.5-.75v.25c0,.5-.09,.75-.25,.75-.34,0-.5-.04-.5-.12s.08-.12,.25-.12Zm5.75-12.5c.16,0,.16-.08,0-.25-.67,0-1.09-.16-1.25-.5-.34-.33-.5-.33-.5,0-.67,.34-.67,.67,0,1,.16,.17,.25,.34,.25,.5l-.25,.25v-.25h-.25c-.17-.33-.42-.33-.75,0-.34,.84-.67,1.59-1,2.25-.34,.67-.67,1.34-1,2-.5,.84-.75,1.59-.75,2.25,0,.17-.09,.25-.25,.25,.16,.17,.25,.17,.25,0,.33-.16,.46-.38,.38-.62-.09-.25,.04-.38,.38-.38,.5-.33,.75-.83,.75-1.5,0-.33,.08-.5,.25-.5,.33-.16,.5-.5,.5-1,.16-1.16,.58-2.08,1.25-2.75h.25v.5c0,.5,.25,.75,.75,.75,.33,0,.41-.25,.25-.75h.25c.33-.16,.5-.58,.5-1.25Zm-4.75,11l.25,.25h-.25v-.25Zm3.75-35.75v-.25l.25,.25h-.25Zm11.5,12.75c0,.17-.09,.25-.25,.25v-.25h.25Zm5.25-.75c0-.16,.08-.29,.25-.38,.16-.08,.25-.04,.25,.12,.16,0,.25,.09,.25,.25h-.75Zm1.25-.5c.16,0,.25,.09,.25,.25h-.25v-.25Zm26.25-10.25c0-.16,.04-.25,.12-.25s.12,.09,.12,.25h-.25l-3,1.5c-.67,.5-1.84,1.09-3.5,1.75-.67,.34-1.29,.67-1.88,1-.59,.34-1.21,.59-1.88,.75-.17,0-.25,.09-.25,.25s.08,.25,.25,.25h.5c-.5,.5-.75,.59-.75,.25-.5-.33-.75-.25-.75,.25l-.5,.5c-.34,0-.71,.09-1.12,.25-.42,.17-.88,.25-1.38,.25-.67-.16-1.42,0-2.25,.5-.84,.34-1.67,.62-2.5,.88-.84,.25-1.67,.54-2.5,.88-.5,.34-1.25,.5-2.25,.5-.17,.17-.29,.25-.38,.25s-.21,.09-.38,.25-.34,.17-.5,0c-.17-.16-.34-.16-.5,0v-.25l.25-.25c.33,.17,.71,.12,1.12-.12,.41-.25,.79-.46,1.12-.62,.5-.16,.96-.29,1.38-.38,.41-.08,.88-.21,1.38-.38h.25c.66-.66,1.38-1.04,2.12-1.12,.75-.08,1.54-.29,2.38-.62,.83-.33,1.71-.66,2.62-1,.91-.33,1.79-.66,2.62-1,2-1,4.33-2.08,7-3.25,1.33-.66,2.41-1.08,3.25-1.25Zm-16.75,10c-.17,0-.25,.17-.25,.5-.34-.16-.59-.16-.75,0-.17,0-.25-.08-.25-.25v-.25c.5,0,.91-.08,1.25-.25l.25,.25h-.25Zm7,4l.25,.25h-.25v-.25Zm1.5-5.75v-.25l.25,.25h-.25Zm7.5-5.75c0-.16,.08-.25,.25-.25,0,.17-.09,.25-.25,.25Zm.25-.25c.16,0,.33-.08,.5-.25v.25h-.5Zm.75,.25c.16,0,.29-.04,.38-.12s.21-.12,.38-.12v.25l-.5,.25-.25-.25Zm5.25-5c.16,0,.29-.08,.38-.25,.08-.16,.21-.08,.38,.25,0,.17-.25,.34-.75,.5l-.62,.62-.88,.88v.25c-.5,.34-.96,.67-1.38,1-.42,.34-.96,.67-1.62,1,0,.17-.04,.25-.12,.25s-.12-.08-.12-.25c-.17,0-.17-.08,0-.25,.33-.33,.58-.5,.75-.5s.41-.16,.75-.5c0-.16,.08-.25,.25-.25-.17-.66,.25-1.16,1.25-1.5l.62-.62c.25-.25,.54-.38,.88-.38l.25-.25Z"/></g></g></g></svg>